<?xml version="1.0" encoding="UTF-8"?>
<svg id="Layer_1" xmlns="http://www.w3.org/2000/svg" version="1.1" viewBox="0 0 500 500">
  <!-- Generator: Adobe Illustrator 29.7.1, SVG Export Plug-In . SVG Version: 2.1.1 Build 8)  -->
  <defs>
    <style>
      .st0 {
        fill: #010101;
      }

      .st1 {
        fill: #fff;
      }

      .st2 {
        fill: none;
        stroke: #fff;
        stroke-linecap: round;
        stroke-linejoin: bevel;
        stroke-width: 9px;
      }
    </style>
  </defs>
  <g>
    <g id="Layer2_0_FILL">
      <path d="M-106.15-906.3c-41.53-41.57-91.67-62.35-150.4-62.35-58.7,0-108.83,20.78-150.4,62.35-41.53,41.53-62.3,91.65-62.3,150.35s20.77,108.87,62.3,150.4c41.57,41.53,91.7,62.3,150.4,62.3s108.87-20.77,150.4-62.3c41.53-41.53,62.3-91.67,62.3-150.4,0-58.7-20.77-108.82-62.3-150.35M-256.55-946.1c52.57,0,97.43,18.57,134.6,55.7,37.13,37.17,55.7,81.98,55.7,134.45s-18.57,97.32-55.7,134.45c-37.17,37.17-82.03,55.75-134.6,55.75s-97.28-18.58-134.45-55.75c-37.13-37.13-55.7-81.95-55.7-134.45,0-52.47,18.57-97.28,55.7-134.45,37.17-37.13,81.98-55.7,134.45-55.7M-121.95-890.4c-37.17-37.13-82.03-55.7-134.6-55.7s-97.28,18.57-134.45,55.7c-37.13,37.17-55.7,81.98-55.7,134.45,0,52.5,18.57,97.32,55.7,134.45,37.17,37.17,81.98,55.75,134.45,55.75s97.43-18.58,134.6-55.75c37.13-37.13,55.7-81.95,55.7-134.45s-18.57-97.28-55.7-134.45M-258.1-697.7l-13.8-7.9v-31.65l13.8,7.9,27.45-15.9v-15.7l-27.45-15.85-27.45,15.85v79.2l-27.45,15.7v-110.75l54.9-31.75,54.9,31.75v47.45l-54.9,31.65M-151.45-871.35l-43.5,83.9-95.85-55.5,76.7,30.95,62.65-59.35Z"/>
      <path class="st0" d="M-194.95-787.45l43.5-83.9-62.65,59.35-76.7-30.95,95.85,55.5M-271.9-705.6l13.8,7.9,54.9-31.65v-47.45l-54.9-31.75-54.9,31.75v110.75l27.45-15.7v-79.2l27.45-15.85,27.45,15.85v15.7l-27.45,15.9-13.8-7.9v31.65Z"/>
    </g>
    <path id="Layer2_0_1_STROKES" class="st2" d="M-66.25-755.95c0,52.5-18.57,97.32-55.7,134.45-37.17,37.17-82.03,55.75-134.6,55.75s-97.28-18.58-134.45-55.75c-37.13-37.13-55.7-81.95-55.7-134.45,0-52.47,18.57-97.28,55.7-134.45,37.17-37.13,81.98-55.7,134.45-55.7s97.43,18.57,134.6,55.7c37.13,37.17,55.7,81.98,55.7,134.45Z"/>
  </g>
  <g id="Layer2_0_MEMBER_0_FILL">
    <path class="st1" d="M-192.95-789.4l44.2-85.25-63.75,60.3-77.9-31.4,97.45,56.35M-271.1-706.25l13.9,8.1,55.85-32.2v-48.2l-55.85-32.3-55.75,32.3v112.55l27.95-15.9v-80.6l27.8-16.05,27.95,16.05v16l-27.95,16.15-13.9-8.05v32.15Z"/>
  </g>
  <g id="Layer0_1_MEMBER_0_MEMBER_0_FILL">
    <path d="M253.23,157.89c-.57-1-1.36-1.75-2.36-2.26l-109.04-62.52c-.93-.57-1.97-.86-3.12-.86-1.07,0-2.18.25-3.33.75L12.17,161.44c-1,.57-1.79,1.4-2.36,2.47-.57.93-.86,2.01-.86,3.22v233.12c0,1.58.5,2.94,1.5,4.08,1,1.22,2.29,1.97,3.87,2.26,1.5.21,2.94-.07,4.3-.86l57.47-33.3c1-.64,1.79-1.4,2.36-2.26.57-1.07.86-2.15.86-3.22v-164.47l62.63-35.45,47.7,27.18v51.57l-50.38,28.79-41.79-22.45c-1.36-.72-2.76-.93-4.19-.64-1.58.36-2.86,1.11-3.87,2.26-.93,1.29-1.4,2.65-1.4,4.08v57.47c0,1.15.32,2.26.97,3.33s1.5,1.9,2.58,2.47l47.48,24.28c.93.36,1.97.54,3.12.54,1.15-.07,2.18-.36,3.12-.86l105.82-64.13c.93-.64,1.68-1.47,2.26-2.47.5-1,.75-2.04.75-3.12v-114.2c0-1.07-.29-2.15-.86-3.22M279.45,111.7c-1.07-.64-2.26-.97-3.55-.97h-59.94c-1.43,0-2.72.43-3.87,1.29-1.22.93-2.01,2.04-2.36,3.33-.36,1.43-.29,2.79.21,4.08.5,1.43,1.36,2.54,2.58,3.33l49.2,30.62v84.98c0,1,.21,1.93.64,2.79l76.49,162.75c.64,1.5,1.75,2.61,3.33,3.33,1.58.64,3.15.68,4.73.11,1.58-.64,2.76-1.72,3.55-3.22l32.12-65.21c.43-.86.64-1.79.64-2.79,0-.93-.18-1.86-.54-2.79l-100.77-218.83c-.57-1.15-1.4-2.08-2.47-2.79M417.28,112.34c-1.07.72-1.9,1.61-2.47,2.69l-62.74,129.45c-.43.93-.64,1.9-.64,2.9,0,.93.21,1.83.64,2.69l30.29,65.85c.57,1.43,1.68,2.51,3.33,3.22,1.58.64,3.15.68,4.73.11,1.58-.57,2.76-1.61,3.55-3.12l96.47-195.41c.64-1.43.79-2.83.43-4.19-.29-1.5-1.04-2.72-2.26-3.65-1.15-1-2.47-1.5-3.97-1.5h-64.03c-1.22,0-2.33.32-3.33.97Z"/>
  </g>
</svg>