<?xml version="1.0" encoding="UTF-8"?>
<svg id="Layer_1" xmlns="http://www.w3.org/2000/svg" version="1.1" viewBox="0 0 1003.22 641.22">
  <!-- Generator: Adobe Illustrator 29.7.1, SVG Export Plug-In . SVG Version: 2.1.1 Build 8)  -->
  <defs>
    <style>
      .st0 {
        fill: #fff;
      }
    </style>
  </defs>
  <g id="Layer0_0_FILL">
    <path class="st0" d="M457.11,155.11c0-1.87-.47-3.62-1.4-5.25-.97-1.67-2.27-2.97-3.9-3.9l-195.55-112.95c-1.63-.93-3.4-1.4-5.3-1.4-1.9,0-3.67.47-5.3,1.4l-20.35,11.7v.2l-51.65,29.55h-.15L24.26,160.71c-1.63.93-2.93,2.23-3.9,3.9-.93,1.63-1.4,3.4-1.4,5.3v422.15c.07.71.14,1.41.2,2.1.44,2.04,1.45,3.83,3.05,5.35.39.38.79.71,1.2,1,.27.2.56.38.85.55.63.37,1.24.67,1.85.9,1.09.37,2.24.55,3.45.55,1.29,0,2.5-.22,3.65-.65.4-.17.78-.36,1.15-.55.17-.07.34-.16.5-.25l107.7-62.15c1.63-.93,2.93-2.22,3.9-3.85.93-1.63,1.4-3.4,1.4-5.3V244.31c0-1.9.48-3.67,1.45-5.3.93-1.63,2.23-2.93,3.9-3.9l46.3-26.5v-.15l47.4-27.3c1.27-.53,2.62-.8,4.05-.8.94,0,1.86.12,2.75.35.85.37,1.7.74,2.55,1.1l66.65,38.5c1.63.93,2.93,2.23,3.9,3.9.93,1.63,1.4,3.4,1.4,5.3v77.1c0,1.9-.47,3.67-1.4,5.3-.97,1.63-2.27,2.92-3.9,3.85l-67.9,39c-1.27.57-2.62.85-4.05.85-1.43,0-2.78-.28-4.05-.85l-58.6-33.55c-1.29-.5-2.62-.75-4-.75s-2.55.2-3.7.6c-.55.25-1.1.53-1.65.85-.28.16-.55.33-.8.5-.43.31-.85.66-1.25,1.05-1.47,1.38-2.46,3-2.95,4.85-.09.92-.19,1.83-.3,2.75v124.3c0,1.9.48,3.67,1.45,5.3.93,1.63,2.23,2.93,3.9,3.9l66.65,38.35c1.63.97,3.4,1.45,5.3,1.45s3.67-.48,5.3-1.45l195.55-112.75c1.63-.93,2.93-2.23,3.9-3.9.93-1.63,1.4-3.4,1.4-5.3v-225.85M983.01,32.21c-3.97.6-8,2.73-12.1,6.4-4.27,3.9-8.83,6.85-13.7,8.85l-.5.4-1.45,4.25c-1.23.37-2.77.9-4.6,1.6-1.9.6-3.32,1.72-4.25,3.35-3.67,2.13-7.17,4.57-10.5,7.3-3.57,3.07-6.95,5.5-10.15,7.3v.35c-1.13,1.5-2.55,2.8-4.25,3.9-1.63,1.1-3.3,1.98-5,2.65v.4l-3.55,3.2-2.45,4.6-3.55,2.85h-3.6c-2.5,2.63-4.87,5.23-7.1,7.8-1.6,2.2-3.73,4.82-6.4,7.85v-6.4l3.05-4.8c-2.6.8-5.5,2.1-8.7,3.9l-9.45,4.6-2.85,4.3h-.7l-3.55,1.95v4.95l-7.3,3.05c.23-2.37,1.18-4.75,2.85-7.15,1.57-2.37,3.47-4.25,5.7-5.65l1.4-4.3c1.23-1.17,2.25-2.05,3.05-2.65,1.07-.83,2.25-1.42,3.55-1.75.77-1.73,1.53-3.22,2.3-4.45.97-1.43,1.97-2.68,3-3.75.83-2.23,1.97-3.83,3.4-4.8,1.4-.8,2.65-1.75,3.75-2.85,1.3-1.4,2.3-4,3-7.8l-3.35,3.75-4.65,1.2-2.15,5.55-3.15,1.75v.7c-1.37.9-2.73,2.03-4.1,3.4-1.07.93-2.32,1.77-3.75,2.5h-.9l-3.55,3.55c1.2-2.37,3.57-5.8,7.1-10.3,3.47-4.77,6.25-7.8,8.35-9.1,1.43-3.1,2.98-5.58,4.65-7.45l4.95-6.75c3.1-1.3,5.18-3.13,6.25-5.5,1.13-2.27,2.55-4.77,4.25-7.5l3.2-1.05c.6-2.2,1.43-4.38,2.5-6.55,1.2-2,2.5-4.02,3.9-6.05h-1.4c-.97,0-1.8.42-2.5,1.25-.7.93-1.53,1.58-2.5,1.95-2.23.1-3.88.93-4.95,2.5-1.47,1.67-3.18,2.97-5.15,3.9v3c-.93-.23-1.83-.05-2.7.55-.9.33-1.85.5-2.85.5l-3,3.6h-.55l-3,3.9c-4.73,2.1-9.48,5-14.25,8.7-4.33,3.5-8.83,6.93-13.5,10.3l-2.85-.35-3.55,3.55-.7,1.4-4.45,1.8c-1.47,1.87-3.23,3.47-5.3,4.8-2,1.5-3.78,3.22-5.35,5.15l-3.75,1.95-1.2-3.2c.8-.33,1.45-.98,1.95-1.95.2-.83.55-1.67,1.05-2.5l3.55-1.4h.55l3-4.25,4.8-2.35c2-4.7,5.13-8.78,9.4-12.25,4.17-3.3,7.5-7.38,10-12.25l-2.35-2.15,3.55-2.1v-.4l3.75-3.55,3.2-1.05v-2.5l-3.2-3.35h-.9l-2.65,4.45c-1.17.67-2.35,1.48-3.55,2.45-1.07.97-2.25,2.15-3.55,3.55h-.2l-2.85,3.6.2,6.9c-1.27,1.27-2.52,2.28-3.75,3.05-1.27.93-2.68,1.75-4.25,2.45-.83,1.7-2.02,3.18-3.55,4.45-1.53,1.1-2.9,2.47-4.1,4.1l-3.9,1.6v.35l-3.4,3.2-1.4-1.95-3.75-1.6v.35l-4.95,5.5c-1.67,1.57-2.85,3.47-3.55,5.7l-4.8,1.95-3.55,3.9-2.85,1.25c-1.43,1.17-2.62,2.65-3.55,4.45-1.1,1.77-1.82,3.67-2.15,5.7l-5.15,3.7v.75l-1.95,4.05-1.6-2.65h-1.25l-2.3,5c-1.53.8-3.02,1.73-4.45,2.8l-3.75,3.6h-.5l-3.55,4.25v3.55c-.93.93-1.83,2.12-2.7,3.55-.67,1.5-1.13,2.98-1.4,4.45l-2.85,1.75c-1.2.73-1.92,1.52-2.15,2.35l-3,1.4h-.55l-3,3.55v.7l-1.45,2.85-4.95,2.15v.55l-3.55,3.15-1.45-2.3-4.6-2.1v1.25c-1.73,2.2-3.4,4.15-5,5.85-2,2.03-3.53,4.22-4.6,6.55l-5,2.15-4.05,4.25-3.55,1.45c-1.7,1.53-3.07,3.3-4.1,5.3-.9,1.77-1.67,3.78-2.3,6.05-.9,1-1.92,1.83-3.05,2.5-.97.87-2.03,1.52-3.2,1.95.13.93-.1,1.93-.7,3-.6,1.47-.95,2.67-1.05,3.6-.97.4-2.1.8-3.4,1.2-1.3.6-2.25.85-2.85.75-.5,1.37-1.2,2.78-2.1,4.25-.93,1.37-2.12,2.67-3.55,3.9v.9c-2.37,1.2-4.5,2.92-6.4,5.15-1.7,1.8-3.37,3.93-5,6.4l-.9,3.9c-1.83.9-3.48,2.03-4.95,3.4-1.43,1.37-3.03,2.43-4.8,3.2h-.35l-3.2,4.05c0,1.13.12,2.27.35,3.4l.15,3.2c-1,.9-3.37,3.38-7.1,7.45-4.1,4.27-7.88,8.65-11.35,13.15-3.8,4.73-6.17,8.12-7.1,10.15l-2.15.5c-.93,2.03-2,3.52-3.2,4.45-1.33.97-3.12,1.45-5.35,1.45l-1.95,4.95-3.9,3.4c-.7,1.53-1.77,3.02-3.2,4.45-1.83,1.97-3.13,3.32-3.9,4.05v.2c-1.6,3.13-3.38,5.98-5.35,8.55-1.9,2.63-4.32,4.88-7.25,6.75l-.55,6.9c-2.2,1.2-4.1,2.38-5.7,3.55-1.87,1.43-3.82,2.45-5.85,3.05-.27,1.93-.68,3.65-1.25,5.15-.37,1.77-.9,3.42-1.6,4.95-2.83,2.6-5.38,5.15-7.65,7.65-2,2.6-4.48,5.03-7.45,7.3v2.15c-2.07,1.43-4.2,3.8-6.4,7.1-2.23,3.17-3.83,6-4.8,8.5l-3.55,3.55-2.15,5.35-3.55,1.8-2.3,3.7-6.2,1.6v-.15l2.1-5,1.95-1.95-.5-4.45c1.77-3.93,2.95-9.03,3.55-15.3.57-7.97.98-14.42,1.25-19.35v-19.2c.67-1.13,1.43-2.78,2.3-4.95,1.2-2.47,1.67-4.25,1.4-5.35l-2.85-4.8,1.95-2.3c-.2-1.63-.2-3.3,0-5,.17-1.8.65-3.4,1.45-4.8l2.85-2.1-1.1-11.55c-.1-4.3.32-8.4,1.25-12.3l-2.3-5.3v-3.05l1.45-3.55c0-1.9-.18-4.08-.55-6.55-.1-2.07-.33-4.38-.7-6.95v-27.55c-3.17-5.33-5.3-9.3-6.4-11.9-1.17-2.8-1-6.88.5-12.25l-4.05-2.3-2.35-6.4c-.2-4.2-.67-8.65-1.4-13.35-.97-3.97-2.1-8.35-3.4-13.15h-1.4l-1.75,4.45c.1,1.47-.03,2.72-.4,3.75-.1,1.33-.38,2.63-.85,3.9.6,1.17,1.07,2.23,1.4,3.2.47,1.2.7,2.5.7,3.9,0,1.7-.42,3.65-1.25,5.85l-1.4,6.05,1.8,3.55-.55,7.65-2.15,4.45-2.1-.55-2.15-7.45c-.37-.6-1.02-3.62-1.95-9.05-1.13-4.7-2.2-9.8-3.2-15.3-.93-5.2-1.58-8.1-1.95-8.7l-4.3-4.25c-2.13,2.4-3.67,5.07-4.6,8-.9,3.13-2.03,5.97-3.4,8.5l-4.75,1.45-4.45,2.8h-.55l-5.15,6.05c-2,1.9-3.78,4.03-5.35,6.4l-2.45,1.1h-.9l-4.45,2.1.35,5.35c-1.47.47-2.72.7-3.75.7-.83,0-1.7-.03-2.6-.1v202.95c0,2.2-.55,4.25-1.65,6.15-1.1,1.9-2.6,3.38-4.5,4.45l-47.15,27.15,2.05,4.65-1.6,1.4v3.75l.2.55-2.85,4.45c-1,1.6-1.88,3.2-2.65,4.8.6,1.57,1.07,2.87,1.4,3.9.37,1.87.48,3.35.35,4.45-1.2,1.37-2.02,2.9-2.45,4.6-.5,1.67-.75,3.33-.75,5l-2.3,2.1c.13,1.47.2,3.3.2,5.5.2,1.9.2,3.75,0,5.55-.6.8-.9,1.73-.9,2.8-.1.97-.28,1.98-.55,3.05.83.7.55,1.77-.85,3.2-1.63,1.27-2.65,2.1-3.05,2.5l2.15,4.4c-.73,2.13-1.33,4.22-1.8,6.25-.63,2-1.4,3.95-2.3,5.85l1.4,5.5-.7,2.35-1.95,1.95c.47,1.63.7,3.52.7,5.65,0,1.9.18,4.03.55,6.4l-2.15,3.75-3,2.85,1.6,3.35c-.27,1.53-.68,3.08-1.25,4.65-.43,1.57-1.02,3.17-1.75,4.8l9.4,22.2h.7l3.55,2.15,1.95,3.55v1.4c1,.63,2.02,1.47,3.05,2.5.9,1.37,1.67,2.43,2.3,3.2v1.4c0,.97.42,1.92,1.25,2.85.4,1,1.17,1.95,2.3,2.85,1.37.27,2.62.8,3.75,1.6,1.53,1.13,2.65,2.02,3.35,2.65,1.37.17,2.55.53,3.55,1.1,1.8.73,2.98,1.2,3.55,1.4h7.85l3.55-1.4c1.47,1,2.65,2.12,3.55,3.35,1.07,1.27,1.95,2.45,2.65,3.55,1.3,0,2.85.3,4.65.9,2.07.53,3.67,1.13,4.8,1.8h8.15l3.05-3.05h1.95c1.8-1.33,3.4-2.7,4.8-4.1,1.43-1.4,2.97-2.58,4.6-3.55.7-1.17,1.23-2.52,1.6-4.05s.78-3.02,1.25-4.45l3.7-4.1c0,.3.13.72.4,1.25.1.27.15.73.15,1.4-1.07,1.1-2.07,2.82-3,5.15-1.3,2.5-1.95,4.58-1.95,6.25v1.75c0,.87.23,1.47.7,1.8h.7c.87-.87,1.58-1.75,2.15-2.65.97-1.33,1.67-2.47,2.1-3.4,1.17-.43,2.12-1.43,2.85-3,.73-1.37,1.45-2.85,2.15-4.45l3.55-3.55c.1-.57.4-1.28.9-2.15.2-.8.2-1.4,0-1.8l2.85-2.45-1.45,3.55,2.15,2.3c.97-1.07,1.85-2.25,2.65-3.55.8-1.37,1.33-2.67,1.6-3.9l-1.6-4.45c.3-.53.78-1.18,1.45-1.95.6-.77,1.07-1.48,1.4-2.15l2.15-1.25c.57-1,1.33-2.72,2.3-5.15.83-2.7,1.25-4.6,1.25-5.7l4.45-4.4.7,1.75v1.25l-3.55,3.75c-.27,1.53-.8,3.18-1.6,4.95-.57,1.8-.98,3.63-1.25,5.5,0,.53.12,1.13.35,1.8l.9,2.5h.9c1.03-1.37,1.92-2.68,2.65-3.95l2.3-3.7c1.77-.83,3.25-2.08,4.45-3.75,1.2-2,1.85-3.9,1.95-5.7l4.25-4.05c.13-.8.43-1.58.9-2.35.27-1.07.27-2,0-2.8l4.1-3.55-2.15,4.8,2.85,3,3.55-3.55,1.6-5.7-1.6-5.7c1.23-1.3,2.25-2.72,3.05-4.25.7-1.53.87-3.43.5-5.7,1.73-2,4.17-5.2,7.3-9.6,3.23-4.73,5.07-8.22,5.5-10.45.97-.7,2.03-1.35,3.2-1.95,1.2-.7,2.5-1.23,3.9-1.6l.7-5.55,3.4-2.3,1.8-3.2,4.8.35.85-5.85c1.57-.6,2.75-1.55,3.55-2.85.97-1.07,1.8-2.3,2.5-3.7l-1.6-5,1.6-2.5,1.95-1.6c.5-1.57,1.27-2.98,2.3-4.25l2.7-3.9,6.2-2.15,1.45-3.2-3.55-3.9,3.55-1.6,2.45-3c1.13-1.23,2.15-2.07,3.05-2.5.97-2.87,2.5-5,4.6-6.4,1.9-1.3,3.68-2.78,5.35-4.45l2.1-5.15c2.27-1.3,4.17-2.97,5.7-5,1.5-1.8,3.28-3.4,5.35-4.8.37-1.23,1.43-2.58,3.2-4.05,1.7-1.5,3.18-2.52,4.45-3.05l1.4-5.65c.73-.5,1.33-1.17,1.8-2,.77-.77,1.53-1.35,2.3-1.75,1.07-2.53,2.67-4.67,4.8-6.4,1.8-1.63,3.75-3.3,5.85-5l1.8-4.8c-.13-.5.03-1.43.5-2.8l1.25-2.85,4.45-1.8v-.5l4.45-1.45,2.85-4.25c3.1-1.57,5.77-4.18,8-7.85,2.03-3.23,4.52-7.08,7.45-11.55,2.5-3.9,5.35-7.15,8.55-9.75l2.1-4.1,4.45-2.5,1.95-5.3c1.13-.97,2.2-1.45,3.2-1.45l3.9-1.05c.63-.63,1.23-1.4,1.8-2.3.43-1.07.97-2.02,1.6-2.85l3.35-2.5,2.15-4.6c1.23-1.13,2.48-2.15,3.75-3.05,1.4-.93,2.7-1.93,3.9-3l2.3-5,3.2-2.1v-1.45c2-1.77,3.78-3.65,5.35-5.65,1.33-1.6,2.87-3.73,4.6-6.4,3.87-1.47,7.37-3.6,10.5-6.4,3.33-3.23,5.77-6.8,7.3-10.7h.85l5-2.1,2.65-4.45c1.43-.83,2.92-2.67,4.45-5.5,1.73-3,3.22-5.97,4.45-8.9l2.65-7.1.9-1.25,1.4-3.55,1.6-1.45,3.2-.85.2-1.95,4.1-4.3,3-.9c1.3-1.03,2.25-2.22,2.85-3.55.87-1.1,2.23-2.03,4.1-2.8.37-2.5,1.32-4.4,2.85-5.7,1.43-1.4,3.32-2.77,5.65-4.1l1.6-5.15c1.67-.6,3.8-2.5,6.4-5.7l5.5-7.1c3.57-1.2,6.6-3.22,9.1-6.05,2.77-2.9,4.95-5.92,6.55-9.05.37.27,1.13.03,2.3-.7,1.2-.23,2.15-.53,2.85-.9l2.3-4.1c2.03-1.13,3.93-3.92,5.7-8.35,1.93-4.23,3.07-7.25,3.4-9.05l7.25-4.25,2.85-3.6h.75l3.2-4.4,1.95-.55c1.47-1,2.88-2.18,4.25-3.55,1.4-1.57,2.35-3.23,2.85-5l6.05-1.75,1.4-5.35c1.8-1.37,4.77-3.73,8.9-7.1,3.1-2.53,5.53-5.2,7.3-8l4.25-3c1.37-1.27,2.6-2.63,3.7-4.1l1.45-3.55,3.55-.7,2.5-4.3h-1.6c-3.97.5-7.88,2.52-11.75,6.05-3.93,3.57-7.3,6.47-10.1,8.7.67-1.37,1.6-2.72,2.8-4.05,1.1-1.07,2.42-2.08,3.95-3.05-.13-.77.03-1.65.5-2.65.2-.93.45-1.7.75-2.3,1.17-.77,2.35-1.67,3.55-2.7,1.33-.97,2.33-2.15,3-3.55,1.43-.7,2.62-1.65,3.55-2.85.97-1.4,1.92-2.7,2.85-3.9,1.87-.33,3.28-1.22,4.25-2.65.97-1.57,1.5-3.23,1.6-5l8.35-4.25,2.15-3.2h.9l2.85-3.55,1.4-.55,4.25-3.55,2.15-4.1,5.5-1.95,1.6-4.6c3.7-2.93,7.25-6.13,10.65-9.6,3.1-3.63,6.48-6.77,10.15-9.4l1.25-3.4,3.55-.7,2.15-3.55h-1.25M809.01,110.91l4.45.9-2.85,6.25-3,1.6.15-5.55c.27-1.23.68-2.3,1.25-3.2M799.76,128.01l4.3-2.7,2.8-4.95c-.77,2.2-1.7,4.15-2.8,5.85-1.3,1.67-3.15,2.97-5.55,3.9l1.25-2.1M848.46,123.21h3.55c.53,0,1.67-.07,3.4-.2l1.4-2.15h2.15l-4.8,6.6c-2.23.8-4.18,1.98-5.85,3.55-1.73,1.37-3.17,3.27-4.3,5.7-.93.1-2,.4-3.2.9-1.07.8-1.95,1.68-2.65,2.65v-2.15c2.9-3.77,4.73-6.13,5.5-7.1,2.13-2.3,3.73-4.9,4.8-7.8M846.86,178.46c.23-.2.72-.43,1.45-.7l-2.15,2.5-2.65,1.05,2.1-2.5c.5,0,.92-.12,1.25-.35M831.41,146.66l-.9,2.85c-1,1.47-2.18,2.77-3.55,3.9-1.57,1.3-3.05,2.37-4.45,3.2l3.05-4.1,2.85-1.4,3-4.45M804.06,181.31l-5.55-.35,2.15-2.5c.73-1.07,1.45-1.78,2.15-2.15l2.85,1.45-1.6,3.55M809.01,170.26l3.55-.7v3.55l-3.55-2.85M789.81,193.21c.83.1,1.55.45,2.15,1.05v1.6l-4.25-3.55c.8.17,1.5.47,2.1.9M552.21,270.71v3.55l-3,.5-1.45-4.95,4.45.9M547.76,285.46l2.85-2.7c.83-.93,1.55-2.12,2.15-3.55l2.15,2.15c-.63,1.63-1.12,3.28-1.45,4.95-.57,1.93-.98,3.6-1.25,5l-4.45,2.85c-.2-.7-.43-1.23-.7-1.6v-1.45c0-.77.12-1.77.35-3,.23-.67.35-1.55.35-2.65M542.81,313.36v-4.8l3.7,1.25v3.55h-3.7M545.11,316.21l3.55-.55,1.95,2.65c.8.9,1.33,1.85,1.6,2.85-1.07,3.6-1.6,7.1-1.6,10.5l-4.1,1.75c.4-.93.7-1.88.9-2.85.23-.73.35-1.5.35-2.3-.2-1.9-.62-3.73-1.25-5.5-.67-1.83-1.13-3.73-1.4-5.7v-.85M527.16,313.51v-7.3l4.25-.7h1.45l-2.15,5-3.55,3M724.41,201.36l2.15-1.95h.7l-2.85,1.95M629.16,294.86l1.95-1.95h1.6l-3.55,1.95M698.11,336.61l4.1,2.85c-2.47,3.4-5.9,7.9-10.3,13.5-4.03,5.37-7.88,9.47-11.55,12.3h-.2l-4.8-.75v-.7l4.1-3.9-.55-4.65,2.15-1.95v-1.05l3.55-3.55v-.7l5-2.15,3.55-4.95-.9.35,2.3-5,3.55.35M659.56,382.11l-4.25,3.05c-.8,2.83-1.75,5.2-2.85,7.1-1.9,2.73-3.45,4.87-4.65,6.4-1.27.77-2.38,1.72-3.35,2.85-1,1-2.13,2-3.4,3l-1.75,5.7-6.05,4.05c.8.7,1.4,1.48,1.8,2.35.57.8.92,1.75,1.05,2.85l-6.95,1.4-3.55,2.85c.33-2.63,1.1-5.07,2.3-7.3,1.2-2.3,2.1-4.67,2.7-7.1,3.17-2.4,6.07-4.72,8.7-6.95,2.5-2.37,4.75-4.97,6.75-7.8l1.75-4.45c3.03-2.63,5.65-5.72,7.85-9.25,2-3.3,4.72-6.13,8.15-8.5l2.15,1.25c-1.4.53-2.65,1.72-3.75,3.55-1.33,1.93-2.22,3.58-2.65,4.95M606.61,437.91l2.5.9,1.6,4.95-7.65,2.7-.35,2.65-3.2,3.9c-.13,1.07-.92,1.9-2.35,2.5-1.37.37-2.6.48-3.7.35l-2.5-2.85,1.95-3.55,4.1-3c1.6-1.23,3.08-2.13,4.45-2.7l1.25-4.95,3.9-.9M544.41,352.96c.73-1.83,1.43-3.25,2.1-4.25l2.15,2.65v3.55l-1.6,3.95-2.85,2.8c-.1,1.3.08,2.73.55,4.3.6,1.9.9,3.55.9,4.95,0,2.1-.07,4.07-.2,5.9l-.7,5.65-.55.55-1.4,4.95-7.85-4.25c.4-1.83.23-3.73-.5-5.7-.63-1.8-1.4-3.45-2.3-4.95,1.87,0,3.22-.23,4.05-.7.93-.5.93-1.93,0-4.3l3.75-2.1v-.9l4.25-3.4-.7-4.25c0-1.4.3-2.88.9-4.45M551.31,345.86c-1.33-.43-2.45-1.2-3.35-2.3-.77-1.3-1.3-2.43-1.6-3.4l4.25,1.6.7,4.1M436.91,462.96l1.55.75v2.45l-1.75-1.05.2-2.15M573.36,478.61c.47,1.2.7,2.38.7,3.55-1.2,1.67-2.27,3.03-3.2,4.1-.77,1.4-1.35,2.77-1.75,4.1l-3.55-1.25c.4-1.73,1.17-3.75,2.3-6.05.87-2.3,1.82-4.43,2.85-6.4,1.43.1,2.32.75,2.65,1.95M587.06,474.71l.9.9-3.05,4.05c-1.6,0-3.08-.23-4.45-.7-1.2-.4-2.55-.98-4.05-1.75.8-.83,1.87-1.43,3.2-1.8l3.2-1.75,4.25,1.05M586.01,488.21l-.4-4.95,3.6-.55c-.67.7-1.33,1.58-2,2.65-.63,1.1-1.03,2.05-1.2,2.85M547.06,512.56l-2.85-1.8c.37-3.33,2.62-6.77,6.75-10.3,4.1-3.5,7.37-7.05,9.8-10.65l1.95,4.25-.7,4.3h-.75c-1.27,0-2.15.7-2.65,2.1-.53,1.1-1,2.28-1.4,3.55-.9.33-1.92,1.12-3.05,2.35-.77.93-1.42,1.87-1.95,2.8v1.25l-5.15,2.15M531.41,534.76l.75-5.15,2.1-3.35v-.75l1.45,3.6-4.3,5.65M546.36,522.71l.7,1.2-2.3,3.05h-3.2l-3.9-2.15,1.6-.9,2.85,2.15,2.65-2.15v-1.2h1.6M545.11,529.81l2.65-.2c-.6.53-1.02,1.13-1.25,1.8-.47.63-.75,1.22-.85,1.75v.9l-.55-4.25M543.51,539.91h-1.95l1.8-1.6,1.4.75-1.25.85M496.41,584.01l.35-1.6h1.8v.5c-1.53,1.47-2.83,3.07-3.9,4.8-1.2,1.8-2.15,3.7-2.85,5.7l-1.45-.9v-4.25l3.05-1.4v-.55l3-2.3M423.91,534.06l-.9,4.1-1.25.9-.7-4.3,1.95-3.35v-1.8l.9,4.45M622.06,445.91l-1.4-2.3c-.73.93-1.15,2.12-1.25,3.55-.13,1.17-.2,2.42-.2,3.75h.35c.93,0,1.65-.6,2.15-1.8.33-1.17.45-2.23.35-3.2M628.11,435.81l-1.95,2.8.5,2.85,3.05-1.05c.2-.4.38-.93.55-1.6v-3.55c-.17-1-.35-1.77-.55-2.3-.23.93-.77,1.88-1.6,2.85M724.76,322.76c-.2.93-.67,1.77-1.4,2.5-.63.83-1.17,1.67-1.6,2.5l.55,2.45,2.45-1.05v-6.4M565.71,331.66l-4.45-2.85c.5,1.17,1.22,2.35,2.15,3.55,1.03,1.2,2.22,2.15,3.55,2.85l-1.25-3.55M565.56,314.06c-.9-.8-2.03-1.28-3.4-1.45l3.55,10.15h1.25l.2-5.7c0-1.3-.53-2.3-1.6-3M876.91,43.41l-3.05-3.55-1.95,4.45,3.55,2.65,1.45-3.55Z"/>
  </g>
</svg>